<svg xmlns="http://www.w3.org/2000/svg" viewBox="0 0 100 100">
  <rect width="100" height="100" rx="12" fill="#141414"/>
  <g transform="translate(50,50)">
    <!-- Autobot insignia -->
    <path d="M0-38 L8-28 L14-18 L12-8 L18-2 L16 8 L12 16 L6 24 L0 30 L-6 24 L-12 16 L-16 8 L-18-2 L-12-8 L-14-18 L-8-28 Z" fill="#e50914"/>
    <!-- Inner face detail -->
    <path d="M0-30 L5-22 L9-14 L7-6 L12 0 L10 6 L7 12 L3 18 L0 22 L-3 18 L-7 12 L-10 6 L-12 0 L-7-6 L-9-14 L-5-22 Z" fill="#b20710"/>
    <!-- Eyes -->
    <rect x="-10" y="-14" width="7" height="4" rx="1.5" fill="#4fc3f7"/>
    <rect x="3" y="-14" width="7" height="4" rx="1.5" fill="#4fc3f7"/>
    <!-- Nose bridge -->
    <rect x="-1.5" y="-8" width="3" height="8" rx="1" fill="#8B1A1A"/>
    <!-- Mouth plate -->
    <rect x="-7" y="2" width="14" height="5" rx="2" fill="#7B1818"/>
    <!-- Chin -->
    <path d="M-4 10 L4 10 L2 18 L-2 18 Z" fill="#7B1818"/>
    <!-- Forehead crest -->
    <path d="M0-40 L4-32 L-4-32 Z" fill="#e50914"/>
    <!-- Antenna left -->
    <path d="M-14-18 L-18-28 L-12-24 Z" fill="#e50914"/>
    <!-- Antenna right -->
    <path d="M14-18 L18-28 L12-24 Z" fill="#e50914"/>
  </g>
</svg>
